<?xml version="1.0" ?>
<!-- Uploaded to: SVG Repo, www.svgrepo.com, Generator: SVG Repo Mixer Tools -->
<svg fill="#000000" width="800px" height="800px" viewBox="0 0 500 500" id="Layer_1" version="1.1" xml:space="preserve" xmlns="http://www.w3.org/2000/svg" xmlns:xlink="http://www.w3.org/1999/xlink">
<g id="luggage">
<g>
<g>
<g>
<path d="M303.38,42.64v6.03c0,0.61-0.06,1.2-0.15,1.78c1.7,1.62,2.71,3.51,2.71,5.51v80.49h6.42V55.96      C312.36,50.52,308.89,45.75,303.38,42.64z"/>
<path d="M196.62,48.67v-6.03c-5.51,3.11-8.98,7.88-8.98,13.32v80.49h6.42V55.96c0-2,1.01-3.89,2.71-5.52      C196.68,49.86,196.62,49.27,196.62,48.67z"/>
</g>
<path d="M291.45,56.32h-82.9c-4.22,0-7.65-3.43-7.65-7.65V32.91c0-4.22,3.43-7.65,7.65-7.65h82.9c4.22,0,7.65,3.43,7.65,7.65     v15.76C299.1,52.88,295.67,56.32,291.45,56.32z M208.55,31.67c-0.67,0-1.23,0.57-1.23,1.23v15.76c0,0.67,0.57,1.23,1.23,1.23     h82.9c0.67,0,1.23-0.57,1.23-1.23V32.91c0-0.67-0.57-1.23-1.23-1.23H208.55z"/>
</g>
<g>
<g>
<g>
<path d="M365.28,444.25H134.72c-7.58,0-13.74-6.16-13.74-13.74V146.99c0-7.58,6.16-13.74,13.74-13.74h230.56       c7.58,0,13.74,6.16,13.74,13.74v283.52C379.02,438.09,372.86,444.25,365.28,444.25z M134.72,139.66       c-4.04,0-7.33,3.29-7.33,7.33v283.52c0,4.04,3.29,7.33,7.33,7.33h230.56c4.04,0,7.33-3.29,7.33-7.33V146.99       c0-4.04-3.29-7.33-7.33-7.33H134.72z"/>
</g>
<g>
<g>
<path d="M188.32,414.03h-26.64V173.05h26.64V414.03z M168.1,407.61h13.8V179.46h-13.8V407.61z"/>
</g>
<g>
<path d="M238.75,414.03h-26.64V173.05h26.64V414.03z M218.53,407.61h13.8V179.46h-13.8V407.61z"/>
</g>
<g>
<path d="M287.88,414.03h-26.64V173.05h26.64V414.03z M267.66,407.61h13.8V179.46h-13.8V407.61z"/>
</g>
<g>
<path d="M338.31,414.03h-26.64V173.05h26.64V414.03z M318.09,407.61h13.8V179.46h-13.8V407.61z"/>
</g>
</g>
</g>
<g>
<g>
<path d="M164.89,474.74c-10.18,0-18.45-8.28-18.45-18.45s8.28-18.45,18.45-18.45c10.18,0,18.45,8.28,18.45,18.45       S175.07,474.74,164.89,474.74z M164.89,444.25c-6.64,0-12.04,5.4-12.04,12.04c0,6.64,5.4,12.04,12.04,12.04       c6.64,0,12.04-5.4,12.04-12.04C176.93,449.65,171.53,444.25,164.89,444.25z"/>
</g>
<g>
<path d="M335.11,474.74c-10.18,0-18.45-8.28-18.45-18.45s8.28-18.45,18.45-18.45c10.18,0,18.45,8.28,18.45,18.45       S345.28,474.74,335.11,474.74z M335.11,444.25c-6.64,0-12.04,5.4-12.04,12.04c0,6.64,5.4,12.04,12.04,12.04       c6.64,0,12.04-5.4,12.04-12.04C347.14,449.65,341.74,444.25,335.11,444.25z"/>
</g>
</g>
</g>
</g>
</g>
</svg>